<?xml version="1.0" encoding="UTF-8" standalone="no"?>
<!-- Created with Inkscape (http://www.inkscape.org/) -->

<svg
   width="264.58325mm"
   height="116.57973mm"
   viewBox="0 0 264.58325 116.57973"
   version="1.1"
   id="svg5"
   xml:space="preserve"
   xmlns="http://www.w3.org/2000/svg"
   xmlns:svg="http://www.w3.org/2000/svg"><defs
     id="defs2" /><g
     id="layer1"
     transform="translate(-63.139332,-54.014142)"><path
       d="m 132.14445,54.014142 c -9.86927,0 -17.86008,7.995182 -17.86008,17.870357 0,0.232717 0.001,0.455149 0.027,0.687866 -1.93116,-0.291861 -3.88933,-0.442291 -5.87321,-0.442291 -5.8205,0 -11.324706,1.283158 -16.272194,3.569185 -2.778462,-1.492732 -5.9555,-2.346456 -9.342112,-2.346456 -10.874316,0 -19.684522,8.82782 -19.684522,19.693521 -5.01e-4,5.770355 2.488273,10.935136 6.430706,14.536456 -0.105815,1.17773 -0.158273,2.36703 -0.158273,3.57948 0,21.55525 17.462781,39.01804 39.027035,39.01804 8.38553,0 16.13591,-2.64604 22.48613,-7.13452 5.71507,7.83524 14.95047,12.94087 25.40088,12.94087 0.26486,0 0.50272,-0.0206 0.74058,-0.0321 3.01632,8.52181 11.11384,14.63932 20.66553,14.63932 9.65712,0 17.85621,-6.26922 20.77482,-14.9659 3.30433,6.28336 9.88726,10.57127 17.48592,10.57127 9.50155,0 17.4345,-6.71408 19.33738,-15.64476 1.37573,0.18643 2.75146,0.32658 4.17862,0.32658 7.72724,0 14.77304,-2.93789 20.10881,-7.72852 6.09436,4.13747 13.44874,6.55079 21.35597,6.55079 20.98311,0 38.01903,-17.03335 38.01903,-38.02931 0,-2.59975 -0.25714,-5.12878 -0.75858,-7.58838 5.52864,-2.05202 9.48869,-7.368517 9.48869,-13.628735 0,-8.031954 -6.5058,-14.549317 -14.55446,-14.549317 -4.15291,0 -7.88153,1.748592 -10.53013,4.534768 -6.15865,-4.278908 -13.61588,-6.797653 -21.66455,-6.797653 -8.15152,0 -15.6859,2.577888 -21.8574,6.937798 -2.80289,-2.575317 -6.50579,-4.163193 -10.60727,-4.163193 -3.04718,0 -5.87579,0.887153 -8.25439,2.391457 -5.72149,-10.13155 -16.53448,-16.998632 -28.9932,-16.998632 -11.37871,-2.57e-4 -21.41126,5.712497 -27.41819,14.409173 -5.0002,-5.153205 -12.01128,-8.357243 -19.78995,-8.357243 -5.13263,0 -9.92197,1.420731 -14.02217,3.857189 -0.10671,-9.793018 -8.07181,-17.70707 -17.88707,-17.70707 z"
       fill="#00aff0"
       id="path2"
       style="opacity:0.022082;fill:#000000;stroke-width:1.28573" /><path
       d="m 132.59317,65.997914 c -4.17991,0 -6.93009,2.377315 -6.93009,6.935226 v 43.32395 c -2.25002,-6.59965 -9.97597,-9.22383 -16.61677,-10.75127 l -5.79607,-1.32816 c -4.286621,-0.94373 -7.408373,-1.70102 -7.408373,-4.942347 0,-2.937892 3.124324,-4.266051 7.965093,-4.266051 8.75839,0 8.94354,6.363078 14.36675,6.363078 3.59875,0 5.79349,-2.855608 5.79349,-6.084075 0,-6.354076 -10.66127,-10.540412 -21.19139,-10.540412 -9.604403,0 -20.797966,4.18505 -20.797966,15.481467 0,9.31512 6.271789,12.64001 14.341029,14.63289 l 8.177237,1.99417 c 4.92049,1.23559 7.96253,1.80774 7.96253,5.31649 0,2.84404 -3.12047,5.03492 -8.06796,5.03492 -10.266548,0 -10.824554,-8.54624 -16.830198,-8.54624 -3.889332,0 -5.582638,2.75403 -5.582638,5.79606 0,6.83237 10.452982,12.43815 22.966986,12.43815 8.94354,0 18.23037,-3.84819 20.71825,-12.04343 v 5.10692 c 0,4.5592 2.75018,6.93651 6.93009,6.93651 4.18119,0 6.93394,-2.37731 6.93394,-6.93651 v -10.53912 l 4.84077,-4.27891 13.12344,18.52479 c 1.03244,1.51588 2.83118,3.22975 6.2705,3.22975 3.70419,0 6.53408,-3.22975 6.53408,-6.75008 0,-2.27317 -0.95272,-3.80061 -1.42844,-4.46534 L 154.448,106.2644 164.68884,95.53884 c 0.423,-0.465434 0.79201,-0.838296 1.10958,-1.257444 0.29186,0.932154 0.68787,2.050739 1.19059,3.543471 l 14.44645,41.117633 c -1.05815,4.27891 -3.04203,4.37148 -4.84077,4.37148 h -1.42973 c -3.70419,0 -6.37593,1.90031 -6.37593,5.60836 0,3.32232 2.5676,6.35279 8.73267,6.35279 8.75711,0 12.54101,-4.92949 15.88134,-14.43103 l 15.58304,-44.175104 v 51.682474 c 0,4.5592 2.75146,6.92366 6.93008,6.92366 4.17863,0 6.93009,-2.36446 6.93009,-6.92366 v -18.52479 h 0.18 c 2.57146,4.46534 7.32866,7.02908 13.68016,7.02908 11.88015,0 18.5788,-8.21967 20.66168,-18.43222 2.32717,9.74583 10.13155,18.43222 25.90745,18.43222 8.33153,0 21.75455,-3.89319 21.75455,-12.25171 0,-2.56504 -2.39146,-5.42193 -5.7215,-5.42193 -5.58006,0 -5.58006,6.84266 -16.03305,6.84266 -8.10009,0 -12.83158,-5.31521 -12.83158,-12.63615 h 31.35895 c 4.65434,0 6.0815,-1.2253 6.0815,-5.98122 0,-11.40185 -9.12868,-22.699557 -25.08459,-22.699557 -13.62873,0 -22.65455,7.450804 -25.34173,19.177947 -2.39146,-12.987158 -11.22442,-19.177947 -21.12454,-19.177947 -6.73722,0 -12.35586,2.856891 -14.6316,8.73139 h -0.18 v -2.179311 c 0,-4.267337 -2.1986,-6.552079 -6.27437,-6.552079 -2.98289,0 -4.83434,1.143014 -5.70864,3.287611 -0.97715,-1.667592 -2.89289,-3.287611 -6.1715,-3.287611 -3.80576,0 -5.68292,2.660175 -6.63436,6.180503 l -8.4691,31.429664 h -0.18644 l -8.94225,-32.386247 c -0.84601,-3.135895 -3.41489,-5.22392 -7.11908,-5.22392 -2.59203,0 -4.83949,1.411731 -5.95164,3.569186 -1.16359,-2.121454 -3.57176,-3.569186 -5.8205,-3.569186 -2.0906,0 -3.88933,1.1443 -5.31907,2.660175 L 139.52711,104.46952 V 72.93314 c 0,-4.557911 -2.75275,-6.935226 -6.93394,-6.935226 z m 150.4818,28.399198 c 6.18436,0 10.91584,4.650484 11.68728,11.016128 H 270.4491 c 1.50431,-6.738505 5.68293,-11.016128 12.62587,-11.016128 z m -49.88631,1.141728 c 7.41866,0.09386 11.04441,6.93651 11.04441,15.09704 0,6.4595 -2.19859,15.29632 -11.04441,15.3889 -8.43439,0 -11.10871,-8.26467 -11.10871,-15.3889 0,-7.88024 3.04718,-15.201184 11.10871,-15.09704 z"
       fill="#ffffff"
       id="path4"
       style="opacity:0.334385;fill:#000000;stroke-width:1.28573" /></g></svg>
